<svg width="24" height="24" viewBox="0 0 24 24" fill="none" xmlns="http://www.w3.org/2000/svg">
<path d="M8.2886 20.022C7.88237 19.2062 8.21438 18.2156 9.03016 17.8093L12.0723 16.2944L13.5561 19.2423L10.5012 20.7635C9.68547 21.1698 8.69483 20.8377 8.2886 20.022Z" fill="#EBC032"/>
<path d="M14.2181 18.9127L12.7344 15.9648L15.7955 14.4405C16.6113 14.0342 17.6019 14.3662 18.0082 15.182C18.4144 15.9978 18.0824 16.9884 17.2666 17.3947L14.2181 18.9127Z" fill="#EBC032"/>
<path d="M10.2529 12.4934C10.7246 13.8765 11.0691 14.5512 11.7707 15.6534C8.74321 17.1652 5.47776 16.0605 3.90137 13.1142C6.34523 11.4 8.24989 11.5188 10.2529 12.4934Z" fill="#EBC032"/>
<path d="M12.4101 15.3317C9.56402 11.7148 9.46001 5.38444 15.199 2.29102C19.9255 8.71008 15.1359 14.1768 12.4101 15.3317Z" fill="#EBC032"/>
</svg>
