<svg width="24" height="24" viewBox="0 0 24 24" fill="none" xmlns="http://www.w3.org/2000/svg">
<path d="M5.45457 2C5.06904 2 4.69823 2.14033 4.4255 2.39066C4.15273 2.64066 4 2.97967 4 3.33332V21.0887C4 21.592 4.44365 22 4.99273 22H4.99639C5.29094 22 5.57091 21.8927 5.77818 21.702C6.7418 20.8193 9.58545 18.2127 10.76 17.138C11.0873 16.8363 11.5345 16.6667 12 16.6667C12.4655 16.6667 12.9128 16.8363 13.24 17.138C14.4182 18.216 17.2764 20.8354 18.2291 21.71C18.4327 21.8957 18.7054 22 18.9927 22C19.5491 22 20 21.587 20 21.0773V3.33332C20 2.97967 19.8473 2.64066 19.5745 2.39066C19.3018 2.14033 18.931 2 18.5454 2H5.45457Z" stroke="#596066" stroke-width="1.5" stroke-linecap="round" stroke-linejoin="round"/>
</svg>
