<svg width="24" height="24" viewBox="0 0 24 24" fill="none" xmlns="http://www.w3.org/2000/svg">
<path d="M3 11.1748C3 12.291 3.21986 13.3963 3.64702 14.4276C4.07419 15.4589 4.70029 16.3959 5.48959 17.1852C6.27889 17.9745 7.21592 18.6006 8.24719 19.0278C9.27846 19.4549 10.3838 19.6748 11.5 19.6748C12.6162 19.6748 13.7215 19.4549 14.7528 19.0278C15.7841 18.6006 16.7211 17.9745 17.5104 17.1852C18.2997 16.3959 18.9258 15.4589 19.353 14.4276C19.7801 13.3963 20 12.291 20 11.1748C20 10.0586 19.7801 8.95326 19.353 7.922C18.9258 6.89073 18.2997 5.95369 17.5104 5.1644C16.7211 4.3751 15.7841 3.74899 14.7528 3.32183C13.7215 2.89466 12.6162 2.6748 11.5 2.6748C10.3838 2.6748 9.27846 2.89466 8.24719 3.32183C7.21592 3.74899 6.27889 4.3751 5.48959 5.1644C4.70029 5.95369 4.07419 6.89073 3.64702 7.922C3.21986 8.95326 3 10.0586 3 11.1748Z" stroke="#8E9BA8" stroke-width="1.5" stroke-linecap="round" stroke-linejoin="round"/>
<path d="M21 21L17.6748 17.6748" stroke="#8E9BA8" stroke-width="2" stroke-linecap="round" stroke-linejoin="round"/>
</svg>
