<svg width="20" height="20" viewBox="0 0 20 20" fill="none" xmlns="http://www.w3.org/2000/svg">
<path d="M2.5 9.31234C2.5 10.2425 2.68322 11.1636 3.03919 12.023C3.39516 12.8824 3.91691 13.6633 4.57466 14.321C5.23241 14.9788 6.01327 15.5005 6.87266 15.8565C7.73205 16.2125 8.65314 16.3957 9.58333 16.3957C10.5135 16.3957 11.4346 16.2125 12.294 15.8565C13.1534 15.5005 13.9343 14.9788 14.592 14.321C15.2498 13.6633 15.7715 12.8824 16.1275 12.023C16.4835 11.1636 16.6667 10.2425 16.6667 9.31234C16.6667 8.38214 16.4835 7.46105 16.1275 6.60166C15.7715 5.74227 15.2498 4.96141 14.592 4.30366C13.9343 3.64592 13.1534 3.12416 12.294 2.76819C11.4346 2.41222 10.5135 2.229 9.58333 2.229C8.65314 2.229 7.73205 2.41222 6.87266 2.76819C6.01327 3.12416 5.23241 3.64592 4.57466 4.30366C3.91691 4.96141 3.39516 5.74227 3.03919 6.60166C2.68322 7.46105 2.5 8.38214 2.5 9.31234Z" stroke="#1CB57A" stroke-width="1.5" stroke-linecap="round" stroke-linejoin="round"/>
<path d="M17.5 17.5L14.729 14.729" stroke="#1CB57A" stroke-width="2" stroke-linecap="round" stroke-linejoin="round"/>
</svg>
