<svg width="16" height="17" viewBox="0 0 16 17" fill="none" xmlns="http://www.w3.org/2000/svg">
    <path
        d="M14 0.5H2C0.895431 0.5 0 1.39543 0 2.5V14.5C0 15.6046 0.895431 16.5 2 16.5H14C15.1046 16.5 16 15.6046 16 14.5V2.5C16 1.39543 15.1046 0.5 14 0.5Z"
        fill="#00B67A" />
    <path
        d="M8.80727 4.53841L9.62835 6.18058C9.74032 6.40917 10.0389 6.62844 10.2908 6.67042L11.779 6.91768C12.7307 7.0763 12.9547 7.76676 12.2689 8.44788L11.1119 9.60486C10.916 9.8008 10.8087 10.1787 10.8693 10.4493L11.2005 11.8815C11.4618 13.0151 10.86 13.4537 9.85695 12.8612L8.46204 12.0354C8.21012 11.8862 7.79492 11.8862 7.53833 12.0354L6.14342 12.8612C5.14506 13.4537 4.53858 13.0105 4.79983 11.8815L5.13107 10.4493C5.19171 10.1787 5.08441 9.8008 4.88847 9.60486L3.7315 8.44788C3.05037 7.76676 3.26964 7.0763 4.22135 6.91768L5.70956 6.67042C5.95681 6.62844 6.25539 6.40917 6.36735 6.18058L7.18843 4.53841C7.6363 3.64735 8.36407 3.64735 8.80727 4.53841Z"
        fill="white" />
</svg>
